# xmcd
#
# Track frame offsets:
#	150
#	25138
#	46396
#	66837
#	92046
#	110364
#	127485
#	141260
#	159259
#	173174
#	191916
#	201910
#	218528
#
# Disc length: 3166 seconds
#
# Revision: 1
# Processed by: cddbd v1.5.1PL0 Copyright (c) Steve Scherf et al.
# Submitted via: dBpowerAMP V4.0
#
DISCID=bf0c5c0d
DTITLE=Hugo Fattoruso - Ciencia Fictiona
DYEAR=2004
DGENRE=Jazz
TTITLE0=Vila Belmiro
TTITLE1=Ruby My Dear
TTITLE2=Trenzinho Caipira -El Saltarin 
TTITLE3=Vivir Contento
TTITLE4=Trapaças
TTITLE5=Your Star 
TTITLE6=Aquello 
TTITLE7=Omnibus 
TTITLE8=Voce Ja Foi A Bahia Nega? 
TTITLE9=27 de Marzo 
TTITLE10=Estrellas 
TTITLE11=Song For Neenna 
TTITLE12=Nueva
EXTD=
EXTT0=
EXTT1=
EXTT2=
EXTT3=
EXTT4=
EXTT5=
EXTT6=
EXTT7=
EXTT8=
EXTT9=
EXTT10=
EXTT11=
EXTT12=
PLAYORDER=
